<svg width="24" height="24" viewBox="0 0 24 24" fill="none" xmlns="http://www.w3.org/2000/svg">
<path d="M11 17.0001H13V13.0001H17V11.0001H13V7.00006H11V11.0001H7V13.0001H11V17.0001ZM12 22.0001C10.6167 22.0001 9.31667 21.7417 8.1 21.2251C6.88333 20.6917 5.825 19.9751 4.925 19.0751C4.025 18.1751 3.30833 17.1167 2.775 15.9001C2.25833 14.6834 2 13.3834 2 12.0001C2 10.6167 2.25833 9.31673 2.775 8.10006C3.30833 6.88339 4.025 5.82506 4.925 4.92506C5.825 4.02506 6.88333 3.31673 8.1 2.80006C9.31667 2.26673 10.6167 2.00006 12 2.00006C13.3833 2.00006 14.6833 2.26673 15.9 2.80006C17.1167 3.31673 18.175 4.02506 19.075 4.92506C19.975 5.82506 20.6833 6.88339 21.2 8.10006C21.7333 9.31673 22 10.6167 22 12.0001C22 13.3834 21.7333 14.6834 21.2 15.9001C20.6833 17.1167 19.975 18.1751 19.075 19.0751C18.175 19.9751 17.1167 20.6917 15.9 21.2251C14.6833 21.7417 13.3833 22.0001 12 22.0001ZM12 20.0001C14.2333 20.0001 16.125 19.2251 17.675 17.6751C19.225 16.1251 20 14.2334 20 12.0001C20 9.76673 19.225 7.87506 17.675 6.32506C16.125 4.77506 14.2333 4.00006 12 4.00006C9.76667 4.00006 7.875 4.77506 6.325 6.32506C4.775 7.87506 4 9.76673 4 12.0001C4 14.2334 4.775 16.1251 6.325 17.6751C7.875 19.2251 9.76667 20.0001 12 20.0001Z" fill="#1D1B20"/>
</svg>
