<svg width="24" height="24" viewBox="0 0 24 24" fill="none" xmlns="http://www.w3.org/2000/svg">
<path d="M15.5 11.0001C15.9167 11.0001 16.2708 10.8542 16.5625 10.5626C16.8542 10.2709 17 9.91673 17 9.50006C17 9.0834 16.8542 8.72923 16.5625 8.43756C16.2708 8.1459 15.9167 8.00006 15.5 8.00006C15.0833 8.00006 14.7292 8.1459 14.4375 8.43756C14.1458 8.72923 14 9.0834 14 9.50006C14 9.91673 14.1458 10.2709 14.4375 10.5626C14.7292 10.8542 15.0833 11.0001 15.5 11.0001ZM8.5 11.0001C8.91667 11.0001 9.27083 10.8542 9.5625 10.5626C9.85417 10.2709 10 9.91673 10 9.50006C10 9.0834 9.85417 8.72923 9.5625 8.43756C9.27083 8.1459 8.91667 8.00006 8.5 8.00006C8.08333 8.00006 7.72917 8.1459 7.4375 8.43756C7.14583 8.72923 7 9.0834 7 9.50006C7 9.91673 7.14583 10.2709 7.4375 10.5626C7.72917 10.8542 8.08333 11.0001 8.5 11.0001ZM12 17.5001C13.1333 17.5001 14.1625 17.1792 15.0875 16.5376C16.0125 15.8959 16.6833 15.0501 17.1 14.0001H6.9C7.31667 15.0501 7.9875 15.8959 8.9125 16.5376C9.8375 17.1792 10.8667 17.5001 12 17.5001ZM12 22.0001C10.6167 22.0001 9.31667 21.7376 8.1 21.2126C6.88333 20.6876 5.825 19.9751 4.925 19.0751C4.025 18.1751 3.3125 17.1167 2.7875 15.9001C2.2625 14.6834 2 13.3834 2 12.0001C2 10.6167 2.2625 9.31673 2.7875 8.10006C3.3125 6.88339 4.025 5.82506 4.925 4.92506C5.825 4.02506 6.88333 3.31256 8.1 2.78756C9.31667 2.26256 10.6167 2.00006 12 2.00006C13.3833 2.00006 14.6833 2.26256 15.9 2.78756C17.1167 3.31256 18.175 4.02506 19.075 4.92506C19.975 5.82506 20.6875 6.88339 21.2125 8.10006C21.7375 9.31673 22 10.6167 22 12.0001C22 13.3834 21.7375 14.6834 21.2125 15.9001C20.6875 17.1167 19.975 18.1751 19.075 19.0751C18.175 19.9751 17.1167 20.6876 15.9 21.2126C14.6833 21.7376 13.3833 22.0001 12 22.0001ZM12 20.0001C14.2333 20.0001 16.125 19.2251 17.675 17.6751C19.225 16.1251 20 14.2334 20 12.0001C20 9.76673 19.225 7.87506 17.675 6.32506C16.125 4.77506 14.2333 4.00006 12 4.00006C9.76667 4.00006 7.875 4.77506 6.325 6.32506C4.775 7.87506 4 9.76673 4 12.0001C4 14.2334 4.775 16.1251 6.325 17.6751C7.875 19.2251 9.76667 20.0001 12 20.0001Z" fill="#1D1B20"/>
</svg>
